<svg width="22" height="22" viewBox="0 0 22 22" fill="none" xmlns="http://www.w3.org/2000/svg">
<g clip-path="url(#clip0_2_497)">
<path d="M8.25016 20.1666C8.75642 20.1666 9.16683 19.7562 9.16683 19.2499C9.16683 18.7437 8.75642 18.3333 8.25016 18.3333C7.7439 18.3333 7.3335 18.7437 7.3335 19.2499C7.3335 19.7562 7.7439 20.1666 8.25016 20.1666Z" stroke="#2C2D35" stroke-width="2" stroke-linecap="round" stroke-linejoin="round"/>
<path d="M18.3332 20.1666C18.8394 20.1666 19.2498 19.7562 19.2498 19.2499C19.2498 18.7437 18.8394 18.3333 18.3332 18.3333C17.8269 18.3333 17.4165 18.7437 17.4165 19.2499C17.4165 19.7562 17.8269 20.1666 18.3332 20.1666Z" stroke="#2C2D35" stroke-width="2" stroke-linecap="round" stroke-linejoin="round"/>
<path d="M0.916504 0.916748H4.58317L7.03984 13.1909C7.12366 13.6129 7.35325 13.992 7.68842 14.2619C8.02359 14.5317 8.44298 14.675 8.87317 14.6667H17.7832C18.2134 14.675 18.6328 14.5317 18.9679 14.2619C19.3031 13.992 19.5327 13.6129 19.6165 13.1909L21.0832 5.50008H5.49984" stroke="#2C2D35" stroke-width="2" stroke-linecap="round" stroke-linejoin="round"/>
</g>
<defs>
<clipPath id="clip0_2_497">
<rect width="22" height="22" fill="white"/>
</clipPath>
</defs>
</svg>
